<svg width="40" height="40" viewBox="0 0 40 40" fill="none" xmlns="http://www.w3.org/2000/svg">
<path d="M24.1667 32.4999H15.8334M24.1667 32.4999C24.1667 31.3116 24.1667 30.7166 24.23 30.3216C24.435 29.0499 24.47 28.9683 25.2817 27.9683C25.5334 27.6583 26.4667 26.8216 28.335 25.1483C29.647 23.9772 30.6964 22.5418 31.4142 20.9364C32.132 19.331 32.5021 17.5919 32.5 15.8333C32.5011 14.4141 32.2604 13.005 31.7884 11.6666M24.1667 32.4999C24.1667 34.0583 24.1667 34.8366 23.8317 35.4166C23.6123 35.7966 23.2967 36.1122 22.9167 36.3316C22.3367 36.6666 21.5584 36.6666 20 36.6666C18.4417 36.6666 17.6634 36.6666 17.0834 36.3316C16.7034 36.1122 16.3878 35.7966 16.1684 35.4166C15.8334 34.8366 15.8334 34.0583 15.8334 32.4999M15.8334 32.4999C15.8334 31.3116 15.8334 30.7166 15.77 30.3216C15.565 29.0499 15.53 28.9683 14.7184 27.9683C14.4667 27.6583 13.5317 26.8216 11.665 25.1483C9.3591 23.0875 7.89893 20.2452 7.56674 17.1705C7.23455 14.0958 8.05393 11.0071 9.86652 8.50142C11.6791 5.99572 14.3562 4.25089 17.3804 3.60417C20.4046 2.95744 23.5612 3.45474 26.24 4.99995" stroke="black" stroke-width="2.5" stroke-linecap="round"/>
<path d="M21.3099 14.1666L17.7383 19.1666H22.7383L19.1666 24.1666" stroke="black" stroke-width="2.5" stroke-linecap="round" stroke-linejoin="round"/>
</svg>
