<svg width="100" height="100" viewBox="0 0 100 100" fill="none" xmlns="http://www.w3.org/2000/svg">
<path d="M87.4999 70.8333V49.9999C87.4999 42.3333 85.1999 35.2041 81.2499 29.2624M12.4999 70.8333V49.9999C12.4987 43.617 14.1267 37.3394 17.2298 31.7616C20.333 26.1838 24.8085 21.4903 30.2326 18.1257C35.6567 14.7611 41.8499 12.8367 48.2256 12.5347C54.6014 12.2327 60.9487 13.5631 66.6666 16.3999M91.6666 64.5833V72.9166M8.33325 64.5833V72.9166" stroke="black" stroke-width="6.25" stroke-linecap="round"/>
<path d="M33.3333 57.6874C33.3333 54.4999 33.3333 52.9082 32.6042 51.7999C32.2448 51.2468 31.7593 50.787 31.1875 50.4582C30.0583 49.8082 28.5333 49.9582 25.4875 50.2582C20.3542 50.7624 17.7875 51.0165 15.9458 52.3999C15.0137 53.1124 14.2343 54.0051 13.6542 55.0249C12.5 57.0707 12.5 59.7499 12.5 65.1207V71.6415C12.5 76.954 12.5 79.6124 13.675 81.6665C14.1194 82.436 14.6639 83.1193 15.3083 83.7165C17.0292 85.2999 19.5333 85.7999 24.55 86.7832C28.0792 87.479 29.8458 87.829 31.15 87.0957C31.6345 86.823 32.0595 86.4561 32.4 86.0165C33.3333 84.8165 33.3333 82.9499 33.3333 79.2082V57.6874ZM66.6667 57.6874C66.6667 54.4999 66.6667 52.9082 67.3958 51.7999C67.7625 51.2457 68.2458 50.7832 68.8125 50.4582C69.9417 49.8082 71.4667 49.9582 74.5125 50.2582C79.6458 50.7624 82.2125 51.0165 84.0542 52.3999C84.9833 53.104 85.7625 53.9957 86.3458 55.0249C87.5 57.0665 87.5 59.7457 87.5 65.1165V71.6374C87.5 76.9499 87.5 79.6082 86.325 81.6624C85.8806 82.4318 85.3361 83.1151 84.6917 83.7124C82.9708 85.2957 80.4667 85.7957 75.45 86.779C71.9208 87.4749 70.1542 87.8249 68.85 87.0915C68.3655 86.8188 67.9405 86.4519 67.6 86.0124C66.6667 84.8165 66.6667 82.9499 66.6667 79.2082V57.6874Z" stroke="black" stroke-width="6.25"/>
</svg>
