<svg width="40" height="40" viewBox="0 0 40 40" fill="none" xmlns="http://www.w3.org/2000/svg">
<path d="M16.6665 3.34839C12.5332 3.40839 10.1915 3.71506 8.61984 5.28672C6.6665 7.23839 6.6665 10.3817 6.6665 16.6667V20.0001C6.6665 26.2851 6.6665 29.4284 8.61984 31.3801C10.5732 33.3317 13.7148 33.3334 19.9998 33.3334C26.2848 33.3334 29.4282 33.3334 31.3798 31.3801C33.3315 29.4267 33.3332 26.2851 33.3332 20.0001V16.6667C33.3332 10.3817 33.3332 7.23839 31.3798 5.28672C29.8082 3.71506 27.4665 3.40839 23.3332 3.34839" stroke="black" stroke-width="2.5" stroke-linecap="round"/>
<path d="M26.6666 21.6667H33.3333L35.9999 19.6667C36.2069 19.5114 36.3749 19.3101 36.4906 19.0787C36.6063 18.8473 36.6666 18.5921 36.6666 18.3333V16.6667C36.6666 16.2246 36.491 15.8007 36.1784 15.4882C35.8659 15.1756 35.4419 15 34.9999 15H33.3333M19.9999 21.6667H6.66659L3.99992 19.6667C3.79293 19.5114 3.62492 19.3101 3.50921 19.0787C3.39349 18.8473 3.33325 18.5921 3.33325 18.3333V16.6667C3.33325 16.2246 3.50885 15.8007 3.82141 15.4882C4.13397 15.1756 4.55789 15 4.99992 15H6.66659M25.8333 26.6667H28.3333M11.6666 26.6667H14.1666M9.99992 32.5V35C9.99992 35.442 10.1755 35.866 10.4881 36.1785C10.8006 36.4911 11.2246 36.6667 11.6666 36.6667H14.1666C14.6086 36.6667 15.0325 36.4911 15.3451 36.1785C15.6577 35.866 15.8333 35.442 15.8333 35V33.3333M29.9999 32.5V35C29.9999 35.442 29.8243 35.866 29.5118 36.1785C29.1992 36.4911 28.7753 36.6667 28.3333 36.6667H25.8333C25.3912 36.6667 24.9673 36.4911 24.6547 36.1785C24.3422 35.866 24.1666 35.442 24.1666 35V33.3333" stroke="black" stroke-width="2.5" stroke-linecap="round" stroke-linejoin="round"/>
<path d="M7.5 8.33337H13.75M32.5 8.33337H20" stroke="black" stroke-width="2.5" stroke-linecap="round"/>
</svg>
