<svg width="100" height="100" viewBox="0 0 100 100" fill="none" xmlns="http://www.w3.org/2000/svg">
<path d="M39.5833 51.6665L45.5374 58.3332L60.4166 41.6665" stroke="black" stroke-width="6.25" stroke-linecap="round" stroke-linejoin="round"/>
<path d="M12.5 43.4041C12.5 30.0791 12.5 23.4166 14.075 21.1749C15.6458 18.9374 21.9083 16.7916 34.4375 12.5041L36.825 11.6874C43.3542 9.44992 46.6167 8.33325 50 8.33325C53.3833 8.33325 56.6458 9.44992 63.175 11.6874L65.5625 12.5041C78.0917 16.7916 84.3542 18.9374 85.925 21.1749C87.5 23.4166 87.5 30.0833 87.5 43.4041V49.9624C87.5 60.3999 84.0125 68.4499 79.1667 74.5999M13.3042 58.3333C16.875 76.2416 31.5667 85.4708 41.2458 89.6958C44.25 91.0083 45.7542 91.6666 50 91.6666C54.25 91.6666 55.75 91.0083 58.7542 89.6958C61.1667 88.6458 63.8833 87.2791 66.6667 85.5541" stroke="black" stroke-width="6.25" stroke-linecap="round"/>
</svg>
