<svg width="40" height="40" viewBox="0 0 40 40" fill="none" xmlns="http://www.w3.org/2000/svg">
<path d="M31.0999 13.81L31.7132 13.1967C32.2832 12.625 32.5699 12.34 32.7416 12.0434C32.9704 11.6477 33.0909 11.1988 33.0909 10.7417C33.0909 10.2847 32.9704 9.83569 32.7416 9.44004C32.5699 9.14337 32.2832 8.85671 31.7132 8.28671C31.1432 7.71671 30.8566 7.43004 30.5599 7.26004C30.1643 7.03122 29.7153 6.91074 29.2582 6.91074C28.8012 6.91074 28.3522 7.03122 27.9566 7.26004C27.6599 7.43004 27.3732 7.71671 26.8032 8.28671L26.1899 8.90004M18.8249 26.0834L9.61991 35.29C9.04824 35.8617 8.76324 36.1467 8.46657 36.3184C8.07093 36.5472 7.62195 36.6677 7.16491 36.6677C6.70786 36.6677 6.25888 36.5472 5.86324 36.3184C5.56491 36.1467 5.27991 35.8617 4.70991 35.29C4.13824 34.72 3.85324 34.4334 3.68157 34.1367C3.45276 33.7411 3.33228 33.2921 3.33228 32.835C3.33228 32.378 3.45276 31.929 3.68157 31.5334C3.85324 31.2367 4.13824 30.95 4.70991 30.38L13.9149 21.175M29.9999 29.5834C28.5032 30.9617 27.4299 31.65 26.1899 31.65C24.3916 31.65 22.9449 30.2034 20.0532 27.31L12.6866 19.945C9.79657 17.055 8.34991 15.6084 8.34991 13.81C8.34991 12.0117 9.79657 10.5667 12.6899 7.67337C15.5832 4.78004 17.0282 3.33337 18.8249 3.33337C20.6232 3.33337 22.0699 4.78004 24.9616 7.67337L32.3282 15.0384C35.2182 17.93 36.6666 19.3767 36.6666 21.175C36.6666 22.42 35.9732 23.495 34.5866 25" stroke="black" stroke-width="2.5" stroke-linecap="round"/>
</svg>
