<svg width="100" height="100" viewBox="0 0 100 100" fill="none" xmlns="http://www.w3.org/2000/svg">
<path d="M49.9998 63.8874C54.604 63.8874 58.3332 60.7791 58.3332 56.9458C58.3332 53.1124 54.604 49.9999 49.9998 49.9999C45.3957 49.9999 41.6665 46.8916 41.6665 43.0541C41.6665 39.2208 45.3957 36.1124 49.9998 36.1124M49.9998 63.8874C45.3957 63.8874 41.6665 60.7791 41.6665 56.9458M49.9998 63.8874V66.6666M49.9998 36.1124V33.3333M49.9998 36.1124C54.604 36.1124 58.3332 39.2208 58.3332 43.0541" stroke="black" stroke-width="6.25" stroke-linecap="round"/>
<path d="M70.8332 13.9083C64.5022 10.2447 57.3146 8.32125 49.9999 8.33331C26.9874 8.33331 8.33325 26.9875 8.33325 50C8.33325 56.6666 9.89992 62.9666 12.6791 68.5541C13.4208 70.0375 13.6666 71.7333 13.2374 73.3375L10.7583 82.6125C10.5127 83.5304 10.5129 84.4967 10.7589 85.4144C11.0049 86.3322 11.4879 87.1691 12.1596 87.8412C12.8312 88.5133 13.6678 88.9969 14.5854 89.2434C15.5031 89.4899 16.4694 89.4908 17.3874 89.2458L26.6624 86.7625C28.2723 86.3557 29.9755 86.5529 31.4499 87.3166C37.2122 90.1856 43.5629 91.6749 49.9999 91.6666C73.0124 91.6666 91.6666 73.0125 91.6666 50C91.6666 42.4125 89.6374 35.2916 86.0916 29.1666" stroke="black" stroke-width="6.25" stroke-linecap="round"/>
</svg>
