<svg width="40" height="40" viewBox="0 0 40 40" fill="none" xmlns="http://www.w3.org/2000/svg">
<path d="M35.0599 6.57334C35.2807 6.33639 35.4009 6.02298 35.3952 5.69914C35.3895 5.3753 35.2583 5.06633 35.0293 4.83731C34.8003 4.60829 34.4913 4.4771 34.1675 4.47139C33.8436 4.46567 33.5302 4.58588 33.2933 4.80668L35.0599 6.57334ZM20.3299 8.34168C20.2071 8.45611 20.1086 8.59411 20.0403 8.74745C19.972 8.90078 19.9352 9.0663 19.9323 9.23414C19.9293 9.40198 19.9602 9.56869 20.023 9.72434C20.0859 9.87999 20.1795 10.0214 20.2982 10.1401C20.4169 10.2588 20.5583 10.3523 20.7139 10.4152C20.8696 10.4781 21.0363 10.509 21.2041 10.506C21.372 10.503 21.5375 10.4663 21.6908 10.398C21.8441 10.3297 21.9821 10.2312 22.0966 10.1083L20.3299 8.34168ZM30.6416 18.6533L29.7583 19.5367C29.9926 19.7708 30.3103 19.9022 30.6416 19.9022C30.9728 19.9022 31.2905 19.7708 31.5249 19.5367L30.6416 18.6533ZM4.85492 19.8067L3.74159 20.3733L3.76159 20.4167L3.78659 20.4567L4.85492 19.8067ZM20.8916 8.90334L21.7749 8.02001L21.4699 7.71334L21.0399 7.66334L20.8916 8.90334ZM20.0599 35.0117L19.4099 36.08L19.4499 36.105L19.4916 36.125L20.0599 35.0117ZM31.6383 26.9433C31.6746 26.7832 31.679 26.6175 31.6513 26.4557C31.6236 26.2939 31.5643 26.1391 31.4768 26.0002C31.3893 25.8613 31.2753 25.741 31.1412 25.6462C31.0072 25.5514 30.8559 25.4838 30.6958 25.4475C30.3724 25.3741 30.0332 25.4322 29.7526 25.609C29.6137 25.6965 29.4934 25.8105 29.3986 25.9445C29.3038 26.0785 29.2363 26.2299 29.1999 26.39L31.6383 26.9433ZM33.2933 4.80668L29.7549 8.34168L31.5233 10.1083L35.0583 6.57501L33.2933 4.80668ZM22.0949 10.11C23.1107 9.09429 24.4884 8.52367 25.9249 8.52367C27.3614 8.52367 28.7391 9.09429 29.7549 10.11L31.5233 8.34168C30.0386 6.85728 28.0252 6.02337 25.9258 6.02337C23.8263 6.02337 21.8129 6.85728 20.3283 8.34168L22.0949 10.11ZM29.7549 10.11C30.7706 11.1258 31.3413 12.5035 31.3413 13.94C31.3413 15.3765 30.7706 16.7542 29.7549 17.77L31.5233 19.5367C33.0077 18.0521 33.8416 16.0386 33.8416 13.9392C33.8416 11.8398 33.0077 9.82631 31.5233 8.34168L29.7549 10.11ZM7.03325 20.9817L5.92159 19.155L3.78659 20.455L4.89825 22.2817L7.03325 20.9817ZM7.92992 12.7883C9.30825 12.0617 10.8199 11.39 12.2916 10.9683L11.6049 8.56501C9.90825 9.04834 8.22992 9.80501 6.76325 10.58L7.92992 12.7883ZM12.2916 10.9683C14.9894 10.2132 17.7973 9.92959 20.5916 10.13L20.7433 10.145L20.8916 8.90334L21.0383 7.66168H21.0316L21.0183 7.66001L20.8133 7.64001C20.6755 7.62557 20.4821 7.61168 20.2333 7.59834C17.3243 7.45022 14.4106 7.77672 11.6066 8.56501L12.2916 10.9683ZM5.96825 19.235C4.79992 16.9467 5.57159 14.0333 7.92992 12.7883L6.76325 10.58C3.09659 12.5133 2.00325 16.9683 3.74159 20.3733L5.96825 19.235ZM17.5849 34.9683L19.4133 36.08L20.7133 33.945L18.8849 32.8333L17.5849 34.9683ZM29.2866 33.1033C30.0616 31.6367 30.8166 29.9583 31.3033 28.2617L28.8983 27.575C28.4766 29.0467 27.8033 30.5583 27.0749 31.9367L29.2866 33.1033ZM19.4933 36.125C22.8999 37.8633 27.3516 36.77 29.2866 33.105L27.0766 31.9383C25.8316 34.295 22.9199 35.0683 20.6299 33.8983L19.4933 36.125ZM20.0066 9.78668L29.7583 19.5367L31.5249 17.77L21.7749 8.02001L20.0066 9.78668ZM4.89992 22.2833C8.05298 27.4663 12.4037 31.817 17.5866 34.97L18.8866 32.835C14.0455 29.8899 9.98172 25.8261 7.03659 20.985L4.89992 22.2833ZM31.3033 28.2617C31.431 27.815 31.5438 27.3772 31.6416 26.945L29.2033 26.3917C29.1155 26.7817 29.0127 27.1761 28.8983 27.575L31.3033 28.2617Z" fill="black"/>
</svg>
