<svg width="40" height="40" viewBox="0 0 40 40" fill="none" xmlns="http://www.w3.org/2000/svg">
<path d="M8.33337 3.75337C7.04337 4.03504 6.06837 4.50337 5.28671 5.28671C3.33337 7.23837 3.33337 10.3817 3.33337 16.6667V18.3334C3.33337 23.0467 3.33337 25.405 4.79837 26.8684C6.26171 28.3334 8.62004 28.3334 13.3334 28.3334H26.6667C31.38 28.3334 33.7384 28.3334 35.2017 26.8684C36.6667 25.405 36.6667 23.0467 36.6667 18.3334V16.6667C36.6667 10.3817 36.6667 7.23837 34.7134 5.28671C32.76 3.33504 29.6184 3.33337 23.3334 3.33337H15M26.6667 36.6667H13.3334M20 28.3334V36.6667M36.6667 21.6667H26.6667M3.33337 21.6667H20" stroke="black" stroke-width="2.5" stroke-linecap="round"/>
</svg>
